<?xml version="1.0" encoding="utf-8"?>
<!-- Generator: Adobe Illustrator 25.2.3, SVG Export Plug-In . SVG Version: 6.00 Build 0)  -->
<svg version="1.1" id="Livello_1" xmlns="http://www.w3.org/2000/svg" xmlns:xlink="http://www.w3.org/1999/xlink" x="0px" y="0px"
	 viewBox="0 0 72.7 72.7" style="enable-background:new 0 0 72.7 72.7;" xml:space="preserve">
<style type="text/css">
	<!-- .st0{fill:none;} -->
	.st1{fill:#00D1E0;}
</style>
<g id="Livello_4">
	<path class="st0" d="M-226.9,28.2v38.8c0.7,0.4,1.4,0.8,2.1,1.2V47.9l33.9,20.2c0.4-0.2,0.9-0.5,1.3-0.7l-17.8-10.6l35.8-19.7
		c0-0.4,0-0.8,0-1.1c0-0.2,0-0.4,0-0.6l-19.1,10.6v-42c-0.4-0.2-0.8-0.4-1.2-0.6v22.4L-226.8,5c-0.6,0.4-1.3,0.8-1.9,1.2l18.6,10.4
		l-34.2,19.7c0,0.7,0,1.3,0.1,2L-226.9,28.2z"/>
	<path d="M-171.6,35.5c-0.2-13.1-7.5-25.2-19.1-31.4v42L-171.6,35.5z"/>
	<path d="M-189.7,67.5c10.8-6.3,17.6-17.8,18-30.3l-35.8,19.7L-189.7,67.5z"/>
	<path d="M-224.9,68.2c10.6,5.6,23.3,5.6,33.9,0l-33.9-20.3V68.2z"/>
	<path d="M-244.2,38.3c0.7,11.8,7.2,22.6,17.3,28.8V28.2L-244.2,38.3z"/>
	<path d="M-228.7,6.2c-9.8,6.8-15.6,17.9-15.6,29.8c0,0.1,0,0.1,0,0.2l34.2-19.7L-228.7,6.2z"/>
	<path d="M-191.9,3.5C-203-2-216.2-1.5-226.8,5l34.9,20.9V3.5z"/>
</g>
<g>
	<path class="st1" d="M72.7,35.8c-0.2-13.1-7.5-25.2-19.1-31.4v42L72.7,35.8z"/>
	<path class="st1" d="M54.6,67.8c10.8-6.3,17.6-17.8,18-30.3L36.8,57.2L54.6,67.8z"/>
	<path class="st1" d="M19.4,68.5c10.6,5.6,23.3,5.6,33.9,0L19.4,48.2V68.5z"/>
	<path class="st1" d="M0.1,38.5c0.7,11.8,7.2,22.6,17.3,28.8V28.5L0.1,38.5z"/>
	<path class="st1" d="M15.6,6.5C5.8,13.3,0,24.4,0,36.3c0,0.1,0,0.1,0,0.2l34.2-19.7L15.6,6.5z"/>
	<path class="st1" d="M52.4,3.7C41.3-1.7,28.1-1.2,17.5,5.3l34.9,20.9V3.7z"/>
</g>
</svg>
