<svg width="73" height="63" viewBox="0 0 73 63" fill="none" xmlns="http://www.w3.org/2000/svg">
<path d="M36.4088 63H7.55854C2.80594 63 0 60.2288 0 55.5453V7.47192C0 2.78083 2.79833 0.0209273 7.54714 0.00217796C14.5696 0.00217796 21.592 0.00217796 28.6145 0.00217796C28.9695 -0.0127274 29.3236 0.0490133 29.652 0.183086C29.9803 0.317159 30.275 0.520329 30.5155 0.778401C33.0173 3.29456 35.5723 5.75823 38.0779 8.27814C38.3128 8.52457 38.5997 8.71711 38.9183 8.84217C39.2369 8.96722 39.5795 9.02174 39.9219 9.00187C48.4309 8.97937 56.94 8.97937 65.4491 9.00187C70.2055 9.00187 73 11.7618 73 16.4529C73 29.4849 73 42.517 73 55.549C73 60.2289 70.1979 62.985 65.4453 62.9888L36.4088 63ZM36.443 53.9066H54.3698C55.2253 53.9066 56.0807 53.9403 56.9324 53.9066C58.362 53.8316 59.1338 52.9579 59.0882 51.6004C59.0242 51.0084 58.7908 50.4466 58.4152 49.9805C53.6094 42.7807 48.7541 35.6259 43.9749 28.4262C42.9673 26.9262 40.9104 26.5513 39.6823 28.4262C37.0741 32.4761 34.2872 36.4209 31.5725 40.4258C30.9604 41.322 30.9452 41.322 30.2836 40.4258C29.4357 39.3008 28.6335 38.1384 27.7438 37.0509C26.6298 35.6897 25.1964 35.6934 24.166 37.0771C20.881 41.4682 17.6341 45.8856 14.3719 50.2954C14.1183 50.6215 13.9628 51.0113 13.9232 51.4204C13.7864 52.9616 14.7331 53.8841 16.5124 53.8878L36.443 53.9066ZM13.7331 27.1325C13.7331 29.5887 15.5809 31.3998 18.1321 31.4336C18.72 31.4531 19.3057 31.3541 19.8534 31.1427C20.4011 30.9313 20.8993 30.6118 21.3175 30.204C21.7357 29.7961 22.0651 29.3083 22.2855 28.7705C22.506 28.2327 22.6129 27.6562 22.5996 27.0762C22.6186 24.4813 20.7442 22.5764 18.1626 22.5764C17.5665 22.5826 16.9777 22.7061 16.4307 22.9396C15.8837 23.1731 15.3894 23.5119 14.9769 23.9363C14.5644 24.3606 14.2419 24.8619 14.0283 25.4107C13.8147 25.9595 13.7144 26.5449 13.7331 27.1325Z" fill="#929292" fill-opacity="0.5"/>
<g clip-path="url(#clip0_359_308)">
<path d="M51.3844 29.1277C52.8528 29.1703 54.0078 30.3941 53.9652 31.8626C53.947 32.5939 53.6282 33.2489 53.1326 33.7166C52.637 34.1843 51.9644 34.462 51.2308 34.4401L38.8546 34.0847L38.4919 46.4586C38.4735 47.1958 38.1553 47.8503 37.6603 48.3174C37.1653 48.7845 36.4941 49.0637 35.7567 49.0397C34.2883 48.9971 33.1334 47.7732 33.1759 46.3048L33.5348 33.9232L21.156 33.5674C19.6876 33.5248 18.5326 32.3009 18.5752 30.8325C18.6177 29.3641 19.8416 28.2092 21.31 28.2517L33.693 28.615L34.0518 16.2333C34.0944 14.7649 35.3183 13.61 36.7867 13.6525C38.2551 13.6951 39.41 14.919 39.3675 16.3874L39.0087 28.769L51.3844 29.1277Z" fill="#505050" fill-opacity="0.7"/>
</g>
<defs>
<clipPath id="clip0_359_308">
<rect width="26.5923" height="42.5476" fill="white" transform="translate(12 25) rotate(-43.34)"/>
</clipPath>
</defs>
</svg>
