<svg width="83" height="84" viewBox="0 0 83 84" fill="none" xmlns="http://www.w3.org/2000/svg">
<mask id="mask0_451_535" style="mask-type:alpha" maskUnits="userSpaceOnUse" x="0" y="0" width="83" height="84">
<ellipse cx="41.5" cy="42" rx="41.5" ry="42" fill="#D9D9D9"/>
</mask>
<g mask="url(#mask0_451_535)">
<path d="M-19.9298 35.3625C-19.3419 35.3625 -18.754 35.3625 -18.1661 35.3625C-0.470163 35.3625 17.2552 35.3625 34.9511 35.3625C36.1563 35.3625 36.1563 35.3625 36.1563 34.1573C36.1563 23.1635 36.1563 12.1696 36.1563 1.17581C36.1563 0.0293961 36.1563 0.0293961 37.2734 0.0293961C40.8302 0.0293961 44.387 0.0293961 47.9145 0.0293961C48.5905 0.0293961 48.7669 0.205768 48.7669 0.911254C48.7375 12.0815 48.7375 23.2517 48.7375 34.4219C48.7375 35.3037 48.8257 35.3625 49.7076 35.3919C50.2955 35.3919 50.8834 35.3919 51.4713 35.3919C68.9321 35.3919 86.3929 35.3919 103.854 35.3919C104.206 35.3919 104.589 35.3919 104.941 35.3919C104.941 39.5954 104.941 43.8283 104.941 48.0319C104.559 48.0613 104.148 48.0613 103.765 48.0613C85.8344 48.0613 67.9032 48.0613 49.9721 48.0613C48.7081 48.0613 48.6787 48.0907 48.6787 49.3253C48.6787 60.4955 48.6787 71.6657 48.7081 82.8359C48.7081 83.365 48.5318 83.512 48.032 83.512C44.24 83.512 40.4481 83.4826 36.6561 83.512C36.0094 83.512 36.0976 83.1592 36.0976 82.7771C36.0976 71.6657 36.0976 60.5543 36.0976 49.4134C36.0976 49.2077 36.0682 49.0313 36.0976 48.8255C36.1563 48.2376 35.8918 48.0613 35.3333 48.0613C32.6583 48.0907 29.9833 48.0613 27.3378 48.0613C11.9346 48.0613 -3.46848 48.0613 -18.8716 48.0613C-19.2243 48.0613 -19.6065 48.0319 -19.9592 48.0319C-19.9298 43.799 -19.9298 39.566 -19.9298 35.3625Z" fill="#E50817"/>
<path d="M-19.9298 82.8358C-18.6658 82.1891 -17.6076 81.2485 -16.4318 80.4548C-15.0502 79.5142 -13.7568 78.4265 -12.4046 77.4271C-9.84723 75.5458 -7.26045 73.6645 -4.67367 71.7832C-1.49898 69.461 1.67571 67.1388 4.8504 64.8165C8.46602 62.1416 12.0816 59.4666 15.6973 56.7916C17.02 55.8216 18.3722 54.8515 19.695 53.8815C19.9596 53.6757 20.2829 53.6463 20.6063 53.6463C23.2518 53.6463 25.8974 53.6463 28.543 53.6463C28.6312 53.6463 28.7487 53.6463 28.8369 53.6757C29.0427 53.7345 29.3367 53.6169 29.4248 53.8815C29.513 54.1461 29.2191 54.2343 29.0427 54.3518C25.4565 56.9974 21.8703 59.6724 18.2546 62.3179C15.8442 64.0817 13.4044 65.7572 10.994 67.5209C7.14323 70.3429 3.35124 73.1942 -0.49954 76.0161C-2.73358 77.6623 -4.96762 79.2496 -7.20166 80.8664C-8.23049 81.6012 -9.22993 82.3949 -10.2588 83.1592C-10.5233 83.365 -10.7879 83.5413 -11.1112 83.5413C-14.0508 83.5413 -16.9903 83.5119 -19.9298 83.5119C-19.9298 83.218 -19.9298 83.0416 -19.9298 82.8358Z" fill="#E50817"/>
<path d="M105 0.382138C103.53 1.264 102.266 2.41041 100.855 3.40985C98.5038 5.05599 96.1816 6.79031 93.8593 8.49523C90.7434 10.7587 87.6275 13.0515 84.5116 15.3149C80.4551 18.2839 76.3985 21.2822 72.342 24.2805C69.961 26.0442 67.58 27.7785 65.2283 29.5422C64.9932 29.7186 64.758 29.748 64.4641 29.748C61.7597 29.748 59.0847 29.748 56.3804 29.748C56.3216 29.748 56.2922 29.748 56.2334 29.748C55.9982 29.7186 55.6455 29.7774 55.5573 29.5716C55.4397 29.2483 55.8218 29.1307 56.0276 28.9837C60.0254 26.0148 64.0525 23.0753 68.0797 20.1358C71.5189 17.6078 74.9876 15.1092 78.4268 12.5812C82.9243 9.2889 87.4512 6.05543 91.9192 2.73376C92.9187 1.99888 93.9769 1.32279 94.9176 0.529115C95.4173 0.117581 95.917 0 96.5343 0C99.3562 0.0293953 102.149 0.0293953 104.971 0.0587905C105 0.176372 105 0.293953 105 0.382138Z" fill="#E50817"/>
<path d="M-17.0245 53.7345C-16.7306 53.7051 -16.4366 53.6757 -16.1427 53.6757C-7.82382 53.6757 0.495045 53.6757 8.8139 53.6757C9.07846 53.6757 9.49 53.5288 9.57818 53.8521C9.66637 54.1167 9.25483 54.2343 9.04906 54.3812C5.43345 57.0562 1.84723 59.7018 -1.76839 62.3767C-6.58922 65.9336 -11.41 69.4904 -16.2603 73.0472C-16.4954 73.2236 -16.7012 73.4588 -17.0245 73.4C-17.0245 66.8742 -17.0245 60.2897 -17.0245 53.7345Z" fill="#012B73"/>
<path d="M105 83.4238C104.589 83.5707 104.206 83.365 103.912 83.1298C101.414 81.2779 98.9446 79.3966 96.446 77.5447C93.0656 75.0461 89.6557 72.5769 86.2753 70.1077C81.8954 66.8742 77.5449 63.6114 73.1356 60.4073C70.343 58.379 67.5799 56.3507 64.8461 54.2637C64.6698 54.1461 64.5228 53.9991 64.317 53.7933C64.9637 53.5288 65.581 53.617 66.1689 53.617C68.2854 53.5876 70.3724 53.617 72.4889 53.617C73.2826 53.617 73.9881 53.7933 74.6348 54.3225C76.3691 55.6746 78.1622 56.9386 79.9259 58.2614C82.5715 60.2015 85.2171 62.1122 87.8332 64.0523C89.7439 65.4339 91.6546 66.8448 93.5653 68.2264C95.8581 69.9019 98.1804 71.6069 100.473 73.2824C101.972 74.37 103.472 75.4576 104.971 76.5453C105 78.8087 105 81.1309 105 83.4238Z" fill="#E50817"/>
<path d="M-16.9951 12.5773C-16.0251 12.8125 -15.349 13.5767 -14.5847 14.1353C-10.0873 17.3687 -5.64857 20.6316 -1.18049 23.9239C1.17113 25.6288 3.49336 27.3631 5.81559 29.0974C7.05019 30.0087 8.28479 30.8906 9.51939 31.7724C9.31362 32.1252 9.04907 32.0076 8.8139 32.0076C0.406858 32.0076 -8.02958 32.0076 -16.4366 32.0076C-16.6424 32.0076 -16.8188 31.9782 -17.0245 31.9488C-16.9951 25.5112 -16.9951 19.0443 -16.9951 12.5773Z" fill="#012B73"/>
<path d="M102.197 71.5216C100.757 70.6397 99.4632 69.5815 98.111 68.5821C95.4066 66.6126 92.7023 64.6431 89.9979 62.6736C86.9408 60.4396 83.9131 58.1761 80.8854 55.9127C79.298 54.7369 77.7107 53.5905 76.0939 52.4147C75.947 52.3265 75.8588 52.1795 75.7118 52.0619C75.8882 51.8268 76.1233 51.9149 76.3291 51.9149C84.7655 51.9149 93.1726 51.9149 101.609 51.9149C101.815 51.9149 101.991 51.9443 102.197 51.9737C102.197 58.4995 102.197 64.9958 102.197 71.5216Z" fill="#012B73"/>
<path d="M-19.9298 0.08818C-19.0773 0.0293894 -18.5482 0.676085 -17.9603 1.08762C-15.4029 2.91013 -12.8456 4.76203 -10.3176 6.64332C-7.87775 8.43644 -5.43794 10.2002 -2.99814 12.0227C0.117762 14.3743 3.32185 16.6377 6.46714 18.9599C9.28909 21.047 12.111 23.1635 14.9624 25.1917C16.7849 26.4851 18.6074 27.8373 20.4299 29.1601C20.5769 29.2777 20.812 29.3659 20.7238 29.601C20.6357 29.7774 20.4299 29.748 20.2535 29.748C17.4904 29.748 14.7272 29.748 11.9641 29.748C11.3174 29.748 10.8764 29.3365 10.4061 28.9837C8.99513 27.9255 7.58416 26.9261 6.14379 25.8972C4.79161 24.9566 3.49822 23.8983 2.17543 22.9283C0.0589714 21.3704 -2.05749 19.8124 -4.23274 18.2838C-6.52557 16.6671 -8.75961 14.9622 -11.023 13.2867C-13.8156 11.3172 -16.5787 9.2889 -19.3419 7.29002C-19.5183 7.17244 -19.724 7.08425 -19.9298 6.99607C-19.9298 4.70324 -19.9298 2.38101 -19.9298 0.08818Z" fill="#E50817"/>
<path d="M99.174 29.6304C98.8801 29.6598 98.5861 29.6892 98.2922 29.6892C90.1203 29.6892 81.919 29.6892 73.7471 29.6892C73.4532 29.6892 73.1886 29.748 72.7771 29.5422C74.0411 28.631 75.2169 27.7785 76.3633 26.9261C79.7732 24.4275 83.2124 21.8995 86.6223 19.4009C90.1203 16.8435 93.6477 14.2861 97.1752 11.7581C97.8219 11.2878 98.4098 10.7293 99.1446 10.3765C99.174 16.7847 99.174 23.2223 99.174 29.6304Z" fill="#012B73"/>
<path d="M91.4782 83.3062C91.0667 83.5119 90.8021 83.4825 90.5376 83.4825C78.9558 83.4825 67.3741 83.4825 55.7924 83.4825C54.7048 83.4825 54.7047 83.4825 54.7047 82.3949C54.7047 73.9879 54.7047 65.5808 54.7047 57.2032C54.7047 56.9386 54.5872 56.5859 54.8517 56.4683C55.0869 56.3507 55.3514 56.5859 55.5572 56.7622C58.4086 58.9963 61.3481 61.054 64.2582 63.2292C67.5799 65.6984 70.9015 68.1676 74.2526 70.6368C78.6325 73.8703 83.0418 77.045 87.4217 80.2785C88.7445 81.2191 90.0673 82.2479 91.4782 83.3062Z" fill="#012B73"/>
<path d="M-6.0553 83.2474C-5.37921 82.7477 -4.73251 82.2185 -4.05642 81.7188C-1.55782 79.8963 0.940775 78.0444 3.43937 76.2219C8.14262 72.7827 12.8459 69.3434 17.5491 65.8748C20.8414 63.4644 24.1042 61.0245 27.3671 58.6141C28.1608 58.0262 28.9545 57.4089 29.7775 56.8504C29.9245 56.7622 30.0715 56.5271 30.2773 56.6447C30.4536 56.7328 30.3654 56.968 30.3654 57.115C30.3654 65.6396 30.3654 74.1642 30.3654 82.6889C30.3654 83.3062 30.1597 83.4825 29.5424 83.4825C17.8725 83.4825 6.23192 83.4825 -5.438 83.4825C-5.64376 83.4825 -5.82014 83.4531 -6.0259 83.4531C-5.99651 83.3649 -6.0259 83.3062 -6.0553 83.2474Z" fill="#012B73"/>
<path d="M73.2826 0.0293957C79.0735 0.0293957 84.8937 0.0293957 90.6846 0.0293957C90.861 0.0293957 91.0373 0.0293957 91.1843 0.0293957C91.3313 0.0293957 91.5665 -0.0293949 91.6252 0.176372C91.684 0.382139 91.4783 0.440929 91.3313 0.55851C90.0673 1.46976 88.8033 2.41041 87.5393 3.32167C83.0418 6.61393 78.5444 9.9356 74.0175 13.2279C69.9903 16.1674 65.9338 19.1069 61.8772 22.0464C59.8784 23.4868 57.9089 24.9566 55.9394 26.4263C55.7924 26.5439 55.6454 26.6909 55.4691 26.7791C55.2633 26.8967 55.0869 27.1612 54.8224 27.0436C54.5578 26.9261 54.6754 26.6027 54.6754 26.3676C54.6754 17.8723 54.6754 9.37709 54.646 0.881858C54.646 0.176372 54.8812 3.93018e-07 55.5572 0.0293957C61.4657 0.0587909 67.3741 0.0293957 73.2826 0.0293957Z" fill="#012B73"/>
<path d="M-6.23166 0.0293961C-5.9965 0.0293961 -5.76134 0.0293961 -5.49678 0.0293961C6.08496 0.0293961 17.6667 0.0293961 29.2484 0.0293961C30.3655 0.0293961 30.3655 0.0293961 30.3655 1.14642C30.3655 9.43588 30.3655 17.7547 30.3655 26.0442C30.3655 26.3088 30.483 26.6615 30.2479 26.8085C29.9833 26.9555 29.7481 26.6321 29.513 26.4557C26.3089 24.1335 23.1048 21.8113 19.9301 19.4891C16.7848 17.1962 13.6395 14.874 10.4942 12.5518C6.52588 9.64165 2.55752 6.73152 -1.41084 3.82139C-2.93939 2.70437 -4.46795 1.61674 -5.9671 0.49972C-6.08469 0.411535 -6.23166 0.352744 -6.34924 0.293953C-6.31985 0.205768 -6.26106 0.117582 -6.23166 0.0293961Z" fill="#012B73"/>
</g>
</svg>
