<svg xmlns="http://www.w3.org/2000/svg" width="58" height="58" fill="none" viewBox="0 0 58 58"><circle cx="29" cy="29" r="29" fill="#00D1E0"/><path fill="#fff" d="M29.1106 30.1988C33.9051 30.1988 37.7909 26.2505 37.7909 21.3789C37.7909 16.5073 33.9051 12.5591 29.1106 12.5591C24.3161 12.5591 20.4303 16.5073 20.4303 21.3789C20.4303 26.2505 24.3161 30.1988 29.1106 30.1988ZM35.1868 32.4038H34.0543C32.5488 33.1066 30.8737 33.5063 29.1106 33.5063C27.3474 33.5063 25.6791 33.1066 24.1669 32.4038H23.0344C18.0025 32.4038 13.92 36.5519 13.92 41.6646V44.5311C13.92 46.3571 15.3781 47.8385 17.1752 47.8385H41.046C42.8431 47.8385 44.3011 46.3571 44.3011 44.5311V41.6646C44.3011 36.5519 40.2186 32.4038 35.1868 32.4038Z"/></svg>